HIERARCHY
ROOT Hips
{
	OFFSET 0.00000 0.00000 0.00000
	CHANNELS 6 Xposition Yposition Zposition Zrotation Yrotation Xrotation 
	JOINT LHipJoint
	{
		OFFSET 0 0 0
		CHANNELS 3 Zrotation Yrotation Xrotation
		JOINT LeftHip
		{
			OFFSET 1.75344 -1.53157 0.77399
			CHANNELS 3 Zrotation Yrotation Xrotation
			JOINT LeftKnee
			{
				OFFSET 2.25415 -6.19323 0.00000
				CHANNELS 3 Zrotation Yrotation Xrotation
				JOINT LeftAnkle
				{
					OFFSET 2.30342 -6.32861 0.00000
					CHANNELS 3 Zrotation Yrotation Xrotation
					JOINT LeftToe
					{
						OFFSET 0.10958 -0.30108 1.49206
						CHANNELS 3 Zrotation Yrotation Xrotation
						End Site
						{
							OFFSET 0.00000 -0.00000 0.77783
						}
					}
				}
			}
		}
	}
	JOINT RHipJoint
	{
		OFFSET 0 0 0
		CHANNELS 3 Zrotation Yrotation Xrotation
		JOINT RightHip
		{
			OFFSET -1.81912 -1.53156 0.77399
			CHANNELS 3 Zrotation Yrotation Xrotation
			JOINT RightKnee
			{
				OFFSET -2.22882 -6.12365 0.00000
				CHANNELS 3 Zrotation Yrotation Xrotation
				JOINT RightAnkle
				{
					OFFSET -2.21943 -6.09785 0.00000
					CHANNELS 3 Zrotation Yrotation Xrotation
					JOINT RightToe
					{
						OFFSET -0.18931 -0.52012 1.59379
						CHANNELS 3 Zrotation Yrotation Xrotation
						End Site
						{
							OFFSET -0.00000 -0.00000 0.84686
						}
					}
				}
			}
		}
	}
	JOINT lowerback
	{
		OFFSET 0 0 0
		CHANNELS 3 Zrotation Yrotation Xrotation
		JOINT Chest
		{
			OFFSET -0.00200 1.66634 -0.14248
			CHANNELS 3 Zrotation Yrotation Xrotation
			JOINT Chest2
			{
				OFFSET -0.00875 1.64542 0.09514
				CHANNELS 3 Zrotation Yrotation Xrotation
				JOINT lowerneck
				{
					OFFSET 0 0 0
					CHANNELS 3 Zrotation Yrotation Xrotation
					JOINT Neck
					{
						OFFSET 0.02257 1.59605 0.00839
						CHANNELS 3 Zrotation Yrotation Xrotation
						JOINT Head
						{
							OFFSET -0.10214 1.57530 -0.23335
							CHANNELS 3 Zrotation Yrotation Xrotation
							End Site
							{
								OFFSET -0.03588 1.60717 -0.08062
							}
						}
					}
				}
				JOINT LeftCollar
				{
					OFFSET 0 0 0
					CHANNELS 3 Zrotation Yrotation Xrotation
					JOINT LeftShoulder
					{
						OFFSET 2.54983 1.10186 0.40078
CHANNELS 3 Zrotation Xrotation Yrotation
						JOINT LeftElbow
						{
OFFSET 0 -4.288400 0.000000
CHANNELS 3 Zrotation Xrotation Yrotation
							JOINT LeftWrist
							{
OFFSET 0 -3.065520 -0.000000
CHANNELS 3 Zrotation Xrotation Yrotation
								JOINT lhand
								{
									OFFSET 0 0 0
CHANNELS 3 Zrotation Xrotation Yrotation
									JOINT LFingers
									{
OFFSET 0 -0.753040 0.000000
CHANNELS 3 Zrotation Xrotation Yrotation
										End Site
										{
OFFSET 0 -0.607120 0.000000
										}
									}
								}
								JOINT LThumb
								{
OFFSET 0 0.000000 0.000000
CHANNELS 3 Zrotation Xrotation Yrotation
									End Site
									{
OFFSET 0 -0.616390 0.616390
									}
								}
							}
						}
					}
				}
				JOINT RightCollar
				{
					OFFSET 0 0 0
					CHANNELS 3 Zrotation Yrotation Xrotation
					JOINT RightShoulder
					{
						OFFSET -2.60909 1.35448 0.21802
CHANNELS 3 Zrotation Xrotation Yrotation
						JOINT RightElbow
						{
OFFSET 0 -4.521720 -0.000000
CHANNELS 3 Zrotation Xrotation Yrotation
							JOINT RightWrist
							{
OFFSET 0 -2.891400 0.000000
CHANNELS 3 Zrotation Xrotation Yrotation
								JOINT rhand
								{
									OFFSET 0 0 0
CHANNELS 3 Zrotation Xrotation Yrotation
									JOINT RFingers
									{
OFFSET 0 -0.680540 0.000000
CHANNELS 3 Zrotation Xrotation Yrotation
										End Site
										{
OFFSET 0 -0.548670 0.000000
										}
									}
								}
								JOINT RThumb
								{
OFFSET 0 0.000000 0.000000
CHANNELS 3 Zrotation Xrotation Yrotation
									End Site
									{
OFFSET 0 -0.557050 0.557050
									}
								}
							}
						}
					}
				}
			}
		}
	}
}
MOTION
Frames: 10
Frame Time: 0.008333333333333333
10.495289 15.283651 -36.548195 351.257139 84.118147 349.708965 0.000000 0.000000 0.000000 -13.155470 -29.845596 -12.581288 1.516218 7.775872 22.035483 -0.280617 16.078574 -19.791364 2.043208 -8.955103 -25.655346 0.000000 0.000000 0.000000 31.125747 0.171278 21.210483 -0.712232 -5.373682 14.982231 1.038840 -18.518475 -12.884686 -0.012865 0.725569 -1.993987 3.790855 1.722160 7.379966 1.201303 2.848975 -3.934003 -1.265470 1.234377 -8.182194 -14.835306 -8.697107 -3.043005 17.370518 -12.958456 14.340011 7.095709 -5.923128 6.969866 0.000000 0.000000 0.000000 8.139270 23.555956 4.899379 19.962510 -30.597161 5.512282 3.739119 10.832101 29.414074 0.000000 0.000000 0.000000 -7.125000 0.000000 0.000000 -15.683036 1.449779 -15.893388 0.000000 0.000000 0.000000 -12.874434 8.303529 34.025870 -21.823147 -32.776543 -6.489829 -5.839388 18.600386 50.166047 0.000000 0.000000 0.000000 7.125000 0.000000 0.000000 61.027801 72.367270 -43.894572
11.023055 15.365262 -36.639013 358.615038 82.974471 356.631631 0.000000 0.000000 0.000000 -15.511615 -27.462421 -10.202396 1.493146 7.719191 21.864322 -0.237158 14.801015 -18.218615 0.773761 -5.613015 -15.666607 0.000000 0.000000 0.000000 29.209777 0.881320 19.676748 -1.536553 -7.813838 22.156183 0.250930 -13.773650 -13.945217 -2.691029 -2.847584 9.989146 3.163933 1.733113 6.875204 0.925187 2.752333 -4.014427 -1.175443 1.215807 -7.990156 -14.724620 -8.789048 -2.950576 17.264846 -13.171967 15.098648 7.033794 -6.006138 7.216855 0.000000 0.000000 0.000000 8.853172 23.214518 5.437320 19.857212 -30.469872 5.458749 4.447970 9.972927 29.456130 0.000000 0.000000 0.000000 -7.125000 0.000000 0.000000 -15.280725 1.342993 -15.483574 0.000000 0.000000 0.000000 -12.572029 10.152504 32.871592 -22.020199 -32.999767 -6.596863 -3.946676 17.272737 50.212673 0.000000 0.000000 0.000000 7.125000 0.000000 0.000000 62.459324 71.712819 -44.386820
11.512850 15.390733 -36.748547 368.860796 82.087416 366.356691 0.000000 0.000000 0.000000 -18.513532 -24.622978 -8.052071 1.408393 7.505936 21.223438 -0.325318 14.264838 -16.027407 1.624641 -8.022313 -22.789222 0.000000 0.000000 0.000000 25.823628 -0.763732 15.281336 -2.870496 -10.470218 30.525271 0.754089 -15.184117 -5.315883 -0.164885 2.614835 -7.208415 1.986650 1.715087 6.841543 0.602330 2.579723 -4.106225 -0.834625 1.181847 -8.107889 -14.645131 -9.067411 -2.878315 16.955569 -13.594103 15.691291 6.873879 -6.208618 7.440924 0.000000 0.000000 0.000000 9.380598 22.528194 5.091793 19.692172 -30.269733 5.375351 5.758023 8.694532 29.399528 0.000000 0.000000 0.000000 -7.125000 0.000000 0.000000 -14.532061 1.267220 -14.691134 0.000000 0.000000 0.000000 -12.806585 12.133925 31.787005 -22.103974 -33.094367 -6.642570 -4.859255 17.598273 50.589647 0.000000 0.000000 0.000000 7.125000 0.000000 0.000000 62.895597 72.199388 -45.311703
11.967671 15.442150 -36.820530 376.930912 80.968076 374.163376 0.000000 0.000000 0.000000 -21.132035 -21.198420 -5.857780 1.166098 6.854160 19.284360 -0.273479 13.605032 -15.640079 2.308537 -9.475215 -27.297999 0.000000 0.000000 0.000000 23.186561 0.379214 10.363311 -4.989606 -13.362875 40.759092 0.635226 -15.025220 0.386948 -0.094372 1.980311 -5.451316 0.651383 1.645584 6.852565 0.095248 2.307092 -4.127331 -0.584909 1.104233 -8.172546 -14.644228 -9.221963 -2.809998 17.234374 -13.882210 15.791061 6.941013 -6.327026 7.532903 0.000000 0.000000 0.000000 9.935973 21.329099 5.049393 19.776463 -30.372083 5.417871 6.007890 8.507024 28.931468 0.000000 0.000000 0.000000 -7.125000 0.000000 0.000000 -14.376519 1.694384 -14.410510 0.000000 0.000000 0.000000 -12.248111 13.448825 30.011597 -21.808087 -32.759376 -6.481739 -6.955909 19.608543 50.630150 0.000000 0.000000 0.000000 7.125000 0.000000 0.000000 61.615636 72.974323 -45.067249
12.392798 15.493603 -36.885542 384.456461 79.743667 381.675030 0.000000 0.000000 0.000000 -23.853958 -19.094853 -3.177965 0.859604 5.911227 16.527311 -0.180680 13.010699 -16.048260 1.560204 -7.868463 -22.323052 0.000000 0.000000 0.000000 20.103347 1.396675 4.165291 -7.697572 -15.887708 51.458325 0.261411 -13.546280 5.833051 -0.000482 -0.084088 0.231173 -0.694500 1.301037 6.499055 -0.415066 1.667302 -3.846460 -0.265271 0.849548 -7.694765 -15.295764 -9.135413 -2.845429 18.012085 -13.794983 15.288015 7.324031 -6.293128 7.469556 0.000000 0.000000 0.000000 10.302260 19.826908 4.601103 20.223873 -30.910980 5.645950 5.593346 7.871620 28.878637 0.000000 0.000000 0.000000 -7.125000 0.000000 0.000000 -14.613557 1.787689 -14.639502 0.000000 0.000000 0.000000 -12.255057 13.909410 29.654946 -21.720726 -32.659949 -6.434476 -6.186750 18.730307 50.538031 0.000000 0.000000 0.000000 7.125000 0.000000 0.000000 61.857764 72.653584 -44.925788
12.784837 15.530995 -36.930682 389.320189 78.480518 385.843387 0.000000 0.000000 0.000000 -26.544654 -17.573713 0.701456 0.560799 4.796169 13.328182 -0.300368 13.853984 -15.663288 1.498354 -7.728877 -21.895093 0.000000 0.000000 0.000000 17.856370 2.586936 -1.107250 -10.309477 -17.579488 60.516818 -0.095479 -12.317425 9.879258 -0.130397 2.298983 -6.333537 -1.929665 0.997100 7.348756 -0.873265 1.084357 -3.493735 0.011707 0.611473 -7.825748 -14.878081 -9.162258 -2.749589 17.764135 -13.750687 14.443187 7.156375 -6.301105 7.123769 0.000000 0.000000 0.000000 11.177147 18.331803 2.694210 20.626224 -31.389393 5.854063 6.558943 5.898007 28.868151 0.000000 0.000000 0.000000 -7.125000 0.000000 0.000000 -14.057462 1.697911 -14.068828 0.000000 0.000000 0.000000 -12.175023 14.386856 29.228808 -21.302240 -32.179431 -6.210118 -7.435249 18.943741 49.366758 0.000000 0.000000 0.000000 7.125000 0.000000 0.000000 57.599078 72.573228 -41.218875
13.153768 15.548363 -36.952763 388.948783 77.711230 385.145776 0.000000 0.000000 0.000000 -27.860256 -16.583370 3.401010 0.429704 4.206725 11.659064 -0.499373 15.315123 -15.261985 2.274166 -9.414394 -27.100939 0.000000 0.000000 0.000000 17.402967 3.624988 -6.122309 -12.286900 -18.508955 66.894914 0.399848 -14.480628 4.595359 -0.020936 -0.928121 2.551199 -2.636079 0.599282 7.826946 -0.672541 0.475816 -3.127239 0.704617 0.349422 -7.709971 -15.361361 -8.979791 -2.544799 17.874116 -13.427526 13.693796 7.309363 -6.206876 6.834220 0.000000 0.000000 0.000000 11.457212 16.250303 1.240373 20.645358 -31.411989 5.863994 7.900263 4.551051 29.664515 0.000000 0.000000 0.000000 -7.125000 0.000000 0.000000 -13.314890 0.775022 -13.505007 0.000000 0.000000 0.000000 -13.274357 15.331306 31.844182 -22.259211 -33.268805 -6.727478 0.051712 11.591174 53.110080 0.000000 0.000000 0.000000 7.125000 0.000000 0.000000 72.998511 71.353608 -53.385075
13.523081 15.553454 -36.972724 387.775499 77.366775 383.660583 0.000000 0.000000 0.000000 -28.952103 -16.540228 5.389414 0.452910 4.317367 11.971281 -0.598843 16.708987 -16.648456 2.593525 -10.001949 -28.986758 0.000000 0.000000 0.000000 17.417315 4.181977 -10.731914 -13.455518 -18.940390 70.534454 0.515216 -13.427952 -0.001330 -0.027618 -1.060051 2.914141 -2.681127 0.366560 8.320034 -0.601309 0.148498 -2.892624 0.851827 0.190490 -7.733698 -15.747470 -9.099728 -2.211873 17.965072 -13.592822 13.373420 7.393100 -6.330582 6.739427 0.000000 0.000000 0.000000 11.990674 13.675553 -0.245619 20.510920 -31.252997 5.794116 8.116126 5.344322 29.896854 0.000000 0.000000 0.000000 -7.125000 0.000000 0.000000 -13.201330 0.523486 -13.443035 0.000000 0.000000 0.000000 -13.661711 16.077229 32.323913 -22.238198 -33.244960 -6.716009 2.495973 9.362084 53.514438 0.000000 0.000000 0.000000 7.125000 0.000000 0.000000 75.407129 70.607948 -54.750051
13.893442 15.564016 -36.979030 385.914885 77.537858 381.829030 0.000000 0.000000 0.000000 -29.561427 -16.964357 6.735697 0.529289 4.661658 12.946021 -0.578885 17.518181 -18.617767 2.396206 -9.636136 -27.814738 0.000000 0.000000 0.000000 18.198174 4.503030 -15.095634 -13.690080 -19.017302 71.255674 0.562726 -13.224282 -5.854580 -0.354760 -3.764581 10.423097 -2.480327 0.012188 8.398958 -0.355551 -0.288010 -2.784494 1.063392 -0.028866 -7.646529 -15.932145 -9.211004 -1.730160 17.781702 -13.743959 13.133120 7.358058 -6.456372 6.606117 0.000000 0.000000 0.000000 11.841656 10.740352 -0.540157 20.225243 -30.912750 5.646588 9.106782 7.613506 30.403846 0.000000 0.000000 0.000000 -7.125000 0.000000 0.000000 -12.660763 -0.091762 -13.002322 0.000000 0.000000 0.000000 -13.581654 17.016256 30.904193 -21.648236 -32.577079 -6.395389 2.175849 10.752087 49.521046 0.000000 0.000000 0.000000 7.125000 0.000000 0.000000 64.999819 69.296872 -43.735515
14.262574 15.537685 -36.962357 385.931766 77.647273 381.771252 0.000000 0.000000 0.000000 -30.567667 -17.487524 7.993775 0.655838 5.178920 14.419711 0.104654 15.798802 -23.424719 0.265070 -3.249370 -8.979516 0.000000 0.000000 0.000000 18.503091 3.822141 -19.065043 -13.177911 -18.845046 69.676842 0.359952 -11.804387 -9.979204 -0.057047 -0.284350 0.780008 -2.845816 -0.307112 8.481682 -0.167399 -0.744999 -2.647913 1.535120 -0.233429 -7.525157 -15.977150 -9.269237 -1.432214 17.850206 -13.839687 12.866244 7.387199 -6.523300 6.495976 0.000000 0.000000 0.000000 11.789839 8.154731 -2.472870 20.417652 -31.142194 5.745789 9.756097 7.780676 29.839850 0.000000 0.000000 0.000000 -7.125000 0.000000 0.000000 -12.258548 0.377169 -12.466987 0.000000 0.000000 0.000000 -13.747204 17.880086 30.574209 -21.460182 -32.361551 -6.294479 -1.321312 13.681169 50.091333 0.000000 0.000000 0.000000 7.125000 0.000000 0.000000 63.974210 70.733548 -44.571128
